<svg xmlns="http://www.w3.org/2000/svg" fill="none" viewBox="0 0 85 85" class="h-10 h-10">
  <mask id="a" width="71" height="43" x="7" y="21" maskUnits="userSpaceOnUse" style="mask-type:luminance">
    <path fill="#555" d="M55.243 22.012a7.082 7.082 0 0 1 6.39 0l12.395 6.268a7.083 7.083 0 0 1 3.889 6.315v15.813a7.083 7.083 0 0 1-3.89 6.322L61.633 63a7.084 7.084 0 0 1-6.39 0l-12.395-6.27a7.083 7.083 0 0 1-3.889-6.318v-15.81a7.083 7.083 0 0 1 3.89-6.322l12.395-6.268Zm-7.14 14.839a2.656 2.656 0 0 0 1.162 3.574l6.516 3.315v6.74a2.656 2.656 0 0 0 5.313 0v-6.74l6.516-3.315a2.656 2.656 0 0 0-2.408-4.736l-6.764 3.443-6.765-3.443a2.656 2.656 0 0 0-3.57 1.162Z"/>
    <path fill="#fff" d="M57.637 26.754a1.77 1.77 0 0 1 1.6 0l12.397 6.265a1.77 1.77 0 0 1 .97 1.58v15.813a1.77 1.77 0 0 1-.97 1.58L59.238 58.26a1.771 1.771 0 0 1-1.6 0L45.24 51.992a1.77 1.77 0 0 1-.97-1.58v-15.81a1.77 1.77 0 0 1 .97-1.58l12.396-6.268Zm3.995-4.742a7.084 7.084 0 0 0-6.39 0L42.848 28.28a7.083 7.083 0 0 0-3.889 6.315v15.814a7.082 7.082 0 0 0 3.89 6.321L55.242 63a7.084 7.084 0 0 0 6.39 0l12.395-6.27a7.083 7.083 0 0 0 3.889-6.318v-15.81a7.084 7.084 0 0 0-3.89-6.322l-12.395-6.268ZM14.167 27.43a2.656 2.656 0 0 1 2.656-2.656H32.76a2.656 2.656 0 1 1 0 5.313H16.823a2.657 2.657 0 0 1-2.656-2.657ZM7.083 41.597A2.656 2.656 0 0 1 9.74 38.94h15.937a2.656 2.656 0 0 1 0 5.312H9.74a2.656 2.656 0 0 1-2.657-2.656Zm9.74 11.51a2.657 2.657 0 0 0 0 5.313H32.76a2.656 2.656 0 0 0 0-5.313H16.823Zm31.28-16.256a2.656 2.656 0 0 1 3.57-1.162l6.764 3.44 6.765-3.443a2.656 2.656 0 1 1 2.408 4.735l-6.516 3.319v6.736a2.656 2.656 0 1 1-5.313 0V43.74l-6.516-3.319a2.656 2.656 0 0 1-1.162-3.57Z"/>
  </mask>
  <g mask="url(#a)">
    <path fill="url(#b)" d="M0 0h85v85H0z"/>
  </g>
  <defs>
    <linearGradient id="b" x1="0" x2="102.466" y1="0" y2="46.57" gradientUnits="userSpaceOnUse">
      <stop stop-color="#31CBED"/>
      <stop offset="1" stop-color="#FAFD63"/>
    </linearGradient>
  </defs>
</svg>
